<svg xmlns="http://www.w3.org/2000/svg" width="178.299" height="105.412" viewBox="0 0 178.299 105.412">
  <g id="meeting-room" transform="translate(0 -104.649)">
    <path id="Caminho_1" data-name="Caminho 1" d="M169.047,146.206h-3.2l.922-16.509a6.467,6.467,0,0,0-7.428-6.75,104.161,104.161,0,0,1-20.709,1.014l.7-12.489a6.468,6.468,0,0,0-7.428-6.75,104.263,104.263,0,0,1-19.05,1.091,2.612,2.612,0,0,0-.183,5.22,109.515,109.515,0,0,0,20.006-1.145,1.241,1.241,0,0,1,1.039.313,1.213,1.213,0,0,1,.4.979l-.692,12.385q-2.486-.251-4.965-.618a6.468,6.468,0,0,0-7.428,6.75l.922,16.509H111.094l.922-16.509a6.467,6.467,0,0,0-7.428-6.75q-2.54.38-5.09.631l-.693-12.4a1.214,1.214,0,0,1,.4-.979,1.246,1.246,0,0,1,1.038-.313c.575.086,1.151.165,1.726.242a2.612,2.612,0,0,0,.693-5.177c-.548-.073-1.1-.149-1.645-.231a6.467,6.467,0,0,0-7.428,6.75l.7,12.495q-5.139.254-10.284,0l.7-12.5a6.467,6.467,0,0,0-7.427-6.75,104.661,104.661,0,0,1-15.123,1.153,2.612,2.612,0,0,0,.008,5.224h.008a109.911,109.911,0,0,0,15.88-1.211,1.239,1.239,0,0,1,1.039.313,1.214,1.214,0,0,1,.4.979l-.693,12.4q-2.549-.254-5.09-.631a6.467,6.467,0,0,0-7.428,6.75L67.2,146.2H56.345l.922-16.509a6.467,6.467,0,0,0-7.428-6.75q-2.477.371-4.964.618l-.692-12.385a1.214,1.214,0,0,1,.4-.979,1.24,1.24,0,0,1,1.039-.313c1.918.287,3.886.528,5.85.716a2.612,2.612,0,1,0,.5-5.2c-1.872-.179-3.747-.408-5.574-.682a6.467,6.467,0,0,0-7.428,6.75l.7,12.489a104.182,104.182,0,0,1-20.708-1.014,6.467,6.467,0,0,0-7.428,6.75l.922,16.509h-3.2A9.262,9.262,0,0,0,0,155.457v5.128A2.612,2.612,0,0,0,2.612,163.2H13.4l.478,8.55a10.092,10.092,0,0,0,10.072,9.525h2.941v10.7a3.524,3.524,0,0,0,3.52,3.52h1.375v5.4a48.715,48.715,0,0,0-11.308,2,2.611,2.611,0,0,0-1.862,2.5v2.061a2.612,2.612,0,0,0,5.224,0v-.075a42.338,42.338,0,0,1,21.115,0v.075a2.612,2.612,0,0,0,5.224,0v-2.061a2.612,2.612,0,0,0-1.862-2.5,48.715,48.715,0,0,0-11.308-2v-5.4h1.375a3.524,3.524,0,0,0,3.52-3.52v-10.7h2.941a10.094,10.094,0,0,0,9.551-6.846,3.525,3.525,0,0,0,3.453,2.841h1.375v5.4a48.713,48.713,0,0,0-11.308,2,2.611,2.611,0,0,0-1.862,2.5v2.061a2.612,2.612,0,1,0,5.224,0v-.075a42.346,42.346,0,0,1,21.115,0v.075a2.612,2.612,0,1,0,5.224,0v-2.061a2.612,2.612,0,0,0-1.862-2.5,48.711,48.711,0,0,0-11.308-2v-5.4h1.375a3.523,3.523,0,0,0,3.4-2.626,10.1,10.1,0,0,0,9.478,6.631h2.941v10.7a3.524,3.524,0,0,0,3.52,3.52h1.375v5.4a48.715,48.715,0,0,0-11.308,2,2.611,2.611,0,0,0-1.862,2.5v2.061a2.612,2.612,0,0,0,5.224,0v-.075a42.337,42.337,0,0,1,21.115,0v.075a2.612,2.612,0,0,0,5.224,0v-2.061a2.612,2.612,0,0,0-1.862-2.5,48.709,48.709,0,0,0-11.308-2v-5.4h1.374a3.524,3.524,0,0,0,3.52-3.52v-10.7H99.6a10.1,10.1,0,0,0,9.478-6.632,3.522,3.522,0,0,0,3.4,2.626h1.375v5.4a48.716,48.716,0,0,0-11.308,2,2.612,2.612,0,0,0-1.862,2.5v2.061a2.612,2.612,0,1,0,5.224,0v-.075a42.338,42.338,0,0,1,21.115,0v.075a2.612,2.612,0,1,0,5.224,0v-2.061a2.612,2.612,0,0,0-1.862-2.5,48.716,48.716,0,0,0-11.308-2v-5.4h1.374a3.525,3.525,0,0,0,3.453-2.84,10.1,10.1,0,0,0,9.551,6.846h2.941v10.7a3.524,3.524,0,0,0,3.52,3.52h1.374v5.4a48.716,48.716,0,0,0-11.308,2,2.611,2.611,0,0,0-1.862,2.5v2.061a2.612,2.612,0,0,0,5.224,0v-.075a42.339,42.339,0,0,1,21.116,0v.075a2.612,2.612,0,0,0,5.224,0v-2.061a2.612,2.612,0,0,0-1.862-2.5,48.716,48.716,0,0,0-11.308-2v-5.4h1.375a3.524,3.524,0,0,0,3.52-3.52v-10.7h2.941a10.037,10.037,0,0,0,5.684-1.761,2.612,2.612,0,0,0-2.947-4.313,4.834,4.834,0,0,1-2.737.85H133.452a4.866,4.866,0,0,1-4.857-4.593l-2.349-42.05a1.214,1.214,0,0,1,.4-.979,1.243,1.243,0,0,1,1.039-.313,109.41,109.41,0,0,0,32.43,0,1.239,1.239,0,0,1,1.039.313,1.213,1.213,0,0,1,.4.979l-2.1,37.6a2.612,2.612,0,0,0,5.215.291l.229-4.1h10.791a2.611,2.611,0,0,0,2.612-2.612v-5.128A9.262,9.262,0,0,0,169.047,146.206Zm-22.864,35.066v9h-4.566v-9Zm-27.438-9.229h-4.566V163.2h4.566Zm3.5-20.614.366,6.544H110.438l.366-6.544ZM64.12,172.043H59.553V163.2H64.12Zm3.375-20.614.366,6.544H55.688l.366-6.544ZM5.224,157.973v-2.516a4.032,4.032,0,0,1,4.028-4.028h3.492l.366,6.544Zm31.458,32.295H32.116v-9h4.566v9Zm8.164-14.22h-20.9a4.866,4.866,0,0,1-4.857-4.593l-2.35-42.05a1.212,1.212,0,0,1,.4-.979,1.244,1.244,0,0,1,.84-.328,1.382,1.382,0,0,1,.2.015,109.409,109.409,0,0,0,32.43,0,1.239,1.239,0,0,1,1.039.313,1.213,1.213,0,0,1,.4.979L49.7,171.455A4.866,4.866,0,0,1,44.846,176.048Zm46.586,14.22H86.866v-9h4.566Zm8.164-14.22H78.7a4.866,4.866,0,0,1-4.857-4.593l-2.35-42.05a1.213,1.213,0,0,1,.4-.979,1.245,1.245,0,0,1,.84-.328,1.382,1.382,0,0,1,.2.015,109.5,109.5,0,0,0,32.43,0,1.239,1.239,0,0,1,1.039.313,1.213,1.213,0,0,1,.4.979l-2.349,42.05A4.866,4.866,0,0,1,99.6,176.048Zm73.479-18.075h-7.886l.366-6.544h3.493a4.032,4.032,0,0,1,4.027,4.028Z" fill="#fff"/>
  </g>
</svg>
