<svg xmlns="http://www.w3.org/2000/svg" width="31.663" height="63.304" viewBox="0 0 31.663 63.304">
  <g id="mic" transform="translate(-112.561)">
    <g id="Grupo_3" data-name="Grupo 3" transform="translate(112.561 0)">
      <path id="Caminho_3" data-name="Caminho 3" d="M143.1,20.667h-2.968V11.739a11.739,11.739,0,0,0-23.478,0h0v8.928h-2.968a1.124,1.124,0,0,0-1.124,1.124V32.585a15.551,15.551,0,0,0,14.707,15.258V53.23h-3.227a2.249,2.249,0,0,0-2.249,2.249v1.709h-1.732a2.249,2.249,0,0,0-2.249,2.249v1.619a2.249,2.249,0,0,0,2.249,2.249h16.664a2.249,2.249,0,0,0,2.249-2.249V59.436a2.249,2.249,0,0,0-2.249-2.249H135V55.478a2.249,2.249,0,0,0-2.249-2.249h-3.238V47.844a15.551,15.551,0,0,0,14.707-15.258V21.791A1.124,1.124,0,0,0,143.1,20.667Zm-24.2-8.928a9.49,9.49,0,0,1,18.98,0v6.5H118.9Zm0,8.748h18.98V24.04H118.9Zm0,5.8h18.98v5.555a9.49,9.49,0,0,1-18.98,0Zm17.822,33.147v1.619H120.061V59.436Zm-3.969-3.958v1.709h-8.714V55.478Zm-4.363-9.827A13.347,13.347,0,0,1,114.81,32.585v-9.67h1.855v8.928a11.739,11.739,0,0,0,23.478,0V22.916h1.844v9.67A13.347,13.347,0,0,1,128.393,45.651Z" transform="translate(-112.561 0)" fill="#fff"/>
    </g>
  </g>
</svg>
