<svg xmlns="http://www.w3.org/2000/svg" width="58.637" height="69.16" viewBox="0 0 58.637 69.16">
  <g id="muted" transform="translate(-38.951)">
    <g id="Grupo_4" data-name="Grupo 4" transform="translate(38.951)">
      <path id="Caminho_4" data-name="Caminho 4" d="M85.26,38.958A17.015,17.015,0,0,1,70.324,55.824V53.06a14.273,14.273,0,0,0,12.2-14.1V23.234L97.588,8.167,94.683,5.261,82.521,17.424V14.251a14.251,14.251,0,0,0-28.5,0V38.958a14.169,14.169,0,0,0,1.214,5.753l-2.051,2.051a16.886,16.886,0,0,1-1.9-7.8V32.069H47.171v6.889A20.97,20.97,0,0,0,50.164,49.78L38.951,60.993,41.856,63.9,52.639,53.115a21.065,21.065,0,0,0,13.576,6.841v5.094H56.073V69.16H80.466V65.051H70.324V59.957a21.128,21.128,0,0,0,19.045-21V32.07H85.26ZM58.127,14.251a10.142,10.142,0,1,1,20.285,0v7.281L58.448,41.5a10.131,10.131,0,0,1-.321-2.538V14.251Zm8.088,41.573a16.971,16.971,0,0,1-10.667-5.617l1.939-1.939a14.245,14.245,0,0,0,8.728,4.793ZM68.269,49.1A10.126,10.126,0,0,1,60.4,45.351L78.412,27.343V38.958h0A10.154,10.154,0,0,1,68.269,49.1Z" transform="translate(-38.951)" fill="#ce0b29"/>
    </g>
  </g>
</svg>
