<svg xmlns="http://www.w3.org/2000/svg" width="74.182" height="51" viewBox="0 0 74.182 51">
  <g id="video-on" transform="translate(0 -80)">
    <g id="Grupo_5" data-name="Grupo 5" transform="translate(0 80)">
      <path id="Caminho_5" data-name="Caminho 5" d="M71.864,84.636H64.909a2.318,2.318,0,0,0-1.646.672l-3.941,3.964H55.636V86.955A6.954,6.954,0,0,0,48.682,80H6.955A6.954,6.954,0,0,0,0,86.955v37.091A6.954,6.954,0,0,0,6.955,131H48.682a6.954,6.954,0,0,0,6.955-6.955v-2.318h3.686l3.964,3.964a2.318,2.318,0,0,0,1.623.672h6.955a2.318,2.318,0,0,0,2.318-2.318V86.955A2.318,2.318,0,0,0,71.864,84.636Zm-2.318,37.091H65.86L61.9,117.763a2.318,2.318,0,0,0-1.623-.672H53.318A2.318,2.318,0,0,0,51,119.409v4.636a2.318,2.318,0,0,1-2.318,2.318H6.955a2.318,2.318,0,0,1-2.318-2.318V86.955a2.318,2.318,0,0,1,2.318-2.318H48.682A2.318,2.318,0,0,1,51,86.955v23.182h4.636V93.909h4.636a2.318,2.318,0,0,0,1.646-.672l3.941-3.964h3.686Z" transform="translate(0 -80)" fill="#fff"/>
    </g>
  </g>
</svg>
