<?xml version="1.0" encoding="iso-8859-1"?>
<!-- Generator: Adobe Illustrator 19.0.0, SVG Export Plug-In . SVG Version: 6.00 Build 0)  -->
<svg version="1.1" id="Capa_1" xmlns="http://www.w3.org/2000/svg" xmlns:xlink="http://www.w3.org/1999/xlink" x="0px" y="0px"
	 viewBox="0 0 512 512" style="enable-background:new 0 0 512 512;" xml:space="preserve">
<g>
	<g>
		<g>
			<path d="M496,112.046h-48c-4.253-0.025-8.34,1.645-11.36,4.64l-32,32l22.56,22.56l27.36-27.2H480v224h-25.44l-27.36-27.36
				c-2.98-2.956-7.003-4.622-11.2-4.64h-48c-8.837,0-16,7.163-16,16v32c0,8.837-7.163,16-16,16H160v32h176c26.51,0,48-21.49,48-48
				v-16h25.44l27.36,27.36c2.98,2.956,7.003,4.622,11.2,4.64h48c8.837,0,16-7.163,16-16v-256
				C512,119.21,504.837,112.046,496,112.046z"/>
			<path d="M336,112.046v-32H48c-26.51,0-48,21.49-48,48v256h32v-256c0-8.837,7.163-16,16-16H336z"/>
			<rect x="-31.515" y="240" transform="matrix(0.7071 -0.7071 0.7071 0.7071 -110.723 244.6909)" width="543.042" height="32"/>
		</g>
	</g>
</g>
<g>
</g>
<g>
</g>
<g>
</g>
<g>
</g>
<g>
</g>
<g>
</g>
<g>
</g>
<g>
</g>
<g>
</g>
<g>
</g>
<g>
</g>
<g>
</g>
<g>
</g>
<g>
</g>
<g>
</g>
</svg>
