<svg xmlns="http://www.w3.org/2000/svg" width="69.867" height="58.223" viewBox="0 0 69.867 58.223">
  <g id="expand" transform="translate(0 -2)">
    <g id="Grupo_1" data-name="Grupo 1" transform="translate(0 2)">
      <path id="Caminho_1" data-name="Caminho 1" d="M1.456,25.289A1.456,1.456,0,0,1,0,23.833V9.278A7.284,7.284,0,0,1,7.278,2H21.833a1.456,1.456,0,1,1,0,2.911H7.278A4.372,4.372,0,0,0,2.911,9.278V23.833A1.456,1.456,0,0,1,1.456,25.289Z" transform="translate(0 -2)" fill="#fff"/>
    </g>
    <g id="Grupo_2" data-name="Grupo 2" transform="translate(46.578 36.934)">
      <path id="Caminho_2" data-name="Caminho 2" d="M32.011,37.289H17.456a1.456,1.456,0,0,1,0-2.911H32.011a4.372,4.372,0,0,0,4.367-4.367V15.456a1.456,1.456,0,0,1,2.911,0V30.011A7.284,7.284,0,0,1,32.011,37.289Z" transform="translate(-16 -14)" fill="#fff"/>
    </g>
    <g id="Grupo_3" data-name="Grupo 3" transform="translate(0 36.934)">
      <path id="Caminho_3" data-name="Caminho 3" d="M21.833,37.289H7.278A7.284,7.284,0,0,1,0,30.011V15.456a1.456,1.456,0,1,1,2.911,0V30.011a4.372,4.372,0,0,0,4.367,4.367H21.833a1.456,1.456,0,1,1,0,2.911Z" transform="translate(0 -14)" fill="#fff"/>
    </g>
    <g id="Grupo_4" data-name="Grupo 4" transform="translate(46.578 2)">
      <path id="Caminho_4" data-name="Caminho 4" d="M37.833,25.289a1.456,1.456,0,0,1-1.456-1.456V9.278a4.372,4.372,0,0,0-4.367-4.367H17.456a1.456,1.456,0,0,1,0-2.911H32.011a7.284,7.284,0,0,1,7.278,7.278V23.833A1.456,1.456,0,0,1,37.833,25.289Z" transform="translate(-16 -2)" fill="#fff"/>
    </g>
    <g id="Grupo_5" data-name="Grupo 5" transform="translate(8.733 10.733)">
      <path id="Caminho_5" data-name="Caminho 5" d="M48.122,45.756H10.278A7.284,7.284,0,0,1,3,38.478v-26.2A7.284,7.284,0,0,1,10.278,5H48.122A7.284,7.284,0,0,1,55.4,12.278v26.2A7.284,7.284,0,0,1,48.122,45.756ZM10.278,7.911a4.372,4.372,0,0,0-4.367,4.367v26.2a4.372,4.372,0,0,0,4.367,4.367H48.122a4.372,4.372,0,0,0,4.367-4.367v-26.2a4.372,4.372,0,0,0-4.367-4.367Z" transform="translate(-3 -5)" fill="#fff"/>
    </g>
  </g>
</svg>
